<?xml version="1.0" encoding="UTF-8"?>
<svg id="LOGO" xmlns="http://www.w3.org/2000/svg" xmlns:xlink="http://www.w3.org/1999/xlink" viewBox="0 0 841.89 595.28">
  <defs>
    <style>
      .cls-1 {
        fill: #48674e;
      }

      .cls-2 {
        fill: #405c46;
      }

      .cls-3 {
        fill: #496950;
      }

      .cls-4 {
        fill: #46654d;
      }

      .cls-5 {
        fill: #3c5641;
      }

      .cls-6 {
        fill: #3b5541;
      }

      .cls-7 {
        fill: #47664d;
      }

      .cls-8 {
        fill: none;
      }

      .cls-9 {
        fill: #3e5843;
      }

      .cls-10 {
        clip-path: url(#clippath-1);
      }

      .cls-11 {
        fill: #425e47;
      }

      .cls-12 {
        fill: #425f48;
      }

      .cls-13 {
        fill: #c8d7b6;
      }

      .cls-14 {
        isolation: isolate;
      }

      .cls-15 {
        fill: #44614a;
      }

      .cls-16 {
        fill: #415d47;
      }

      .cls-17 {
        fill: #4d6e53;
      }

      .cls-18 {
        fill: #4c6c53;
      }

      .cls-19 {
        fill: #3e5944;
      }

      .cls-20 {
        fill: #3d5742;
      }

      .cls-21 {
        fill: #45624b;
      }

      .cls-22 {
        fill: #4b6b52;
      }

      .cls-23 {
        fill: #49684f;
      }

      .cls-24 {
        fill: #46634c;
      }

      .cls-25 {
        fill: #eff9fe;
      }

      .cls-26 {
        fill: #436049;
      }

      .cls-27 {
        fill: #4a6a51;
      }

      .cls-28 {
        clip-path: url(#clippath-2);
      }

      .cls-29 {
        fill: #3f5944;
      }

      .cls-30 {
        clip-path: url(#clippath);
      }

      .cls-31 {
        fill: #3f5a45;
      }
    </style>
    <clipPath id="clippath">
      <path class="cls-8" d="M212.04,537.05l-8.6-6.96c27.29,22.09,62.11,35.27,100.32,35.27l8.6,6.96c-38.2,0-73.03-13.18-100.32-35.27Z"/>
    </clipPath>
    <clipPath id="clippath-1">
      <path class="cls-8" d="M629.85,58.22l8.6,6.96c37.19,30.1,60.39,76.73,59.11,129.08l-8.6-6.96c1.28-52.35-21.92-98.98-59.11-129.08Z"/>
    </clipPath>
    <clipPath id="clippath-2">
      <path class="cls-8" d="M683.74,401.02l8.6,6.96c-2.22,90.76-77.18,164.34-167.45,164.34l-8.6-6.96c90.27,0,165.23-73.58,167.45-164.34Z"/>
    </clipPath>
  </defs>
  <g class="cls-14">
    <g class="cls-14">
      <g class="cls-30">
        <g class="cls-14">
          <path class="cls-5" d="M303.76,565.36l8.6,6.96c-38.2,0-73.03-13.18-100.32-35.27l-8.6-6.96c27.29,22.09,62.11,35.27,100.32,35.27"/>
        </g>
      </g>
    </g>
    <g class="cls-14">
      <g class="cls-10">
        <g class="cls-14">
          <path class="cls-27" d="M629.85,58.22l8.6,6.96c.69.56,1.37,1.12,2.04,1.68l-8.6-6.96c-.68-.57-1.36-1.13-2.04-1.68"/>
          <path class="cls-22" d="M631.89,59.91l8.6,6.96c3.61,3.02,7.08,6.2,10.4,9.53l-8.6-6.96c-3.32-3.33-6.79-6.51-10.4-9.53"/>
          <path class="cls-18" d="M642.3,69.43l8.6,6.96c5.44,5.45,10.48,11.29,15.09,17.48l-8.6-6.96c-4.61-6.19-9.65-12.03-15.09-17.48"/>
          <path class="cls-17" d="M657.39,86.91l8.6,6.96c6.47,8.7,12.07,18.09,16.69,28.04l-8.6-6.96c-4.62-9.96-10.22-19.35-16.69-28.04"/>
          <path class="cls-18" d="M674.08,114.96l8.6,6.96c3.21,6.91,5.94,14.1,8.15,21.52l-8.6-6.96c-2.22-7.42-4.95-14.61-8.15-21.52"/>
          <path class="cls-22" d="M682.23,136.48l8.6,6.96c1.33,4.45,2.47,8.98,3.42,13.59l-8.6-6.96c-.95-4.61-2.09-9.14-3.42-13.59"/>
          <path class="cls-27" d="M685.65,150.06l8.6,6.96c.78,3.77,1.42,7.59,1.93,11.45l-8.6-6.96c-.51-3.86-1.16-7.68-1.93-11.45"/>
          <path class="cls-3" d="M687.59,161.51l8.6,6.96c.44,3.32.78,6.67,1.02,10.05l-8.6-6.96c-.24-3.38-.58-6.73-1.02-10.05"/>
          <path class="cls-23" d="M688.6,171.56l8.6,6.96c.22,3.08.35,6.19.39,9.32l-8.6-6.96c-.04-3.13-.17-6.24-.39-9.32"/>
          <path class="cls-1" d="M688.99,180.88l8.6,6.96c.03,2.13.02,4.27-.03,6.42l-8.6-6.96c.05-2.15.06-4.29.03-6.42"/>
        </g>
      </g>
    </g>
    <polygon class="cls-6" points="516.29 565.36 524.89 572.32 312.36 572.32 303.76 565.36 516.29 565.36"/>
    <polygon class="cls-1" points="688.96 187.3 697.56 194.26 692.34 407.98 683.74 401.02 688.96 187.3"/>
    <g class="cls-14">
      <g class="cls-28">
        <g class="cls-14">
          <path class="cls-1" d="M683.74,401.02l8.6,6.96c-.02.85-.05,1.71-.08,2.56l-8.6-6.96c.03-.85.06-1.7.08-2.56"/>
          <path class="cls-7" d="M683.66,403.58l8.6,6.96c-.11,2.83-.29,5.64-.55,8.43l-8.6-6.96c.25-2.79.43-5.6.55-8.43"/>
          <path class="cls-4" d="M683.11,412.01l8.6,6.96c-.24,2.71-.55,5.39-.92,8.06l-8.6-6.96c.37-2.67.68-5.35.92-8.06"/>
          <path class="cls-24" d="M682.19,420.07l8.6,6.96c-.37,2.63-.79,5.24-1.28,7.83l-8.6-6.96c.49-2.59.91-5.2,1.28-7.83"/>
          <path class="cls-21" d="M680.91,427.9l8.6,6.96c-.48,2.55-1.02,5.09-1.61,7.6l-8.6-6.96c.59-2.51,1.13-5.05,1.61-7.6"/>
          <path class="cls-15" d="M679.3,435.5l8.6,6.96c-.6,2.52-1.25,5.02-1.96,7.5l-8.6-6.96c.71-2.48,1.36-4.98,1.96-7.5"/>
          <path class="cls-26" d="M677.34,443l8.6,6.96c-.72,2.5-1.49,4.97-2.31,7.43l-8.6-6.96c.83-2.45,1.6-4.93,2.31-7.43"/>
          <path class="cls-12" d="M675.02,450.43l8.6,6.96c-.85,2.51-1.75,5-2.72,7.46l-8.6-6.96c.96-2.46,1.87-4.95,2.72-7.46"/>
          <path class="cls-11" d="M672.3,457.89l8.6,6.96c-.98,2.5-2.01,4.97-3.11,7.41l-8.6-6.96c1.09-2.44,2.13-4.91,3.11-7.41"/>
          <path class="cls-16" d="M669.2,465.3l8.6,6.96c-1.16,2.6-2.39,5.16-3.68,7.69l-8.6-6.96c1.29-2.53,2.52-5.09,3.68-7.69"/>
          <path class="cls-2" d="M665.52,473l8.6,6.96c-1.36,2.66-2.78,5.28-4.27,7.85l-8.6-6.96c1.49-2.58,2.91-5.2,4.27-7.85"/>
          <path class="cls-31" d="M661.25,480.85l8.6,6.96c-1.59,2.74-3.25,5.44-4.98,8.09l-8.6-6.96c1.73-2.64,3.39-5.34,4.98-8.09"/>
          <path class="cls-19" d="M656.27,488.94l8.6,6.96c-1.93,2.94-3.94,5.81-6.04,8.62l-8.6-6.96c2.1-2.81,4.11-5.68,6.04-8.62"/>
          <path class="cls-9" d="M650.23,497.56l8.6,6.96c-2.46,3.28-5.03,6.48-7.71,9.57l-8.6-6.96c2.68-3.09,5.25-6.29,7.71-9.57"/>
          <path class="cls-20" d="M642.52,507.13l8.6,6.96c-3.43,3.96-7.04,7.76-10.81,11.38l-8.6-6.96c3.77-3.63,7.38-7.42,10.81-11.38"/>
          <path class="cls-5" d="M631.71,518.52l8.6,6.96c-30.18,28.98-70.94,46.85-115.42,46.85l-8.6-6.96c44.48,0,85.24-17.87,115.42-46.85"/>
        </g>
      </g>
    </g>
    <path class="cls-29" d="M529.53,22.95c90.27,0,161.64,73.58,159.43,164.34l-5.22,213.72c-2.22,90.76-77.18,164.34-167.45,164.34h-212.53c-90.26,0-161.64-73.58-159.43-164.34l5.22-213.72c2.22-90.76,77.19-164.34,167.45-164.34h212.53Z"/>
  </g>
  <path class="cls-13" d="M237.76,507.19c-1.89,0-3.81-.42-5.62-1.32-6.26-3.11-5.17-10-5.72-16.97-.71-9.14,11.96-41.25,28.65-66.28,3.88-5.83,3.46-13.87,2.39-15.68,0,0-24.76-56.78-25.33-91.36-.54-32.68,9.35-65.72,27.12-90.66,24.21-33.96,54.49-67.45,133.48-75.75,93.59-9.84,161.66-27.97,182.04-32.26l16.58-3.61c18.29-5.1,26.89,6.87,25.24,17.33-3.39,21.59-10.43,90.12-49.97,181.32-19.01,43.84-68.3,113.46-118.39,130.98-29.62,10.36-67.72,14.86-100.71,8.16-17.33-3.52-28.82-6.72-48.02-9.19-8.88-1.14-16.48.6-20.68,8.51-14.11,26.62-29.48,49.27-29.71,49.75-2.21,4.46-6.69,7.04-11.35,7.04ZM310.12,390.27c-4.56,6.22-2.52,14.99,4.28,18.62,22.26,11.89,48.92,18.31,75.51,18.31,17.08,0,34.12-2.65,49.96-8.19,37.18-13.01,83.54-71.08,103.52-117.15,26.25-60.55,39.25-115.85,45.42-150.13,1.51-8.36-6.26-15.39-14.44-13.09-40.35,11.39-109.67,28.72-179.12,35.71-68.63,6.91-92.87,33.64-115.4,65.25-27.99,39.27-29.57,96.84-5.8,133.88,3.8,5.93,12.42,6.32,16.57.64,36.71-50.32,53.42-50.99,54.68-51.42,22.5-7.76,26.32,13.25,10.94,22.84-5.6,3.49-21.42,11.04-46.14,44.73ZM606.77,128.97h0s-.01,0-.02,0c0,0,.01,0,.02,0ZM602.91,116.91h0,0Z"/>
  <path class="cls-13" d="M323.11,261.75h38.31c3.47,0,6.27,2.81,6.27,6.27v38.76c0,3.99-3.67,6.95-7.57,6.13-6.1-1.28-13.17-1.08-20.71,1.05-1.7.48-8.19,3.74-17.81,11.2-1.94,1.5-4.77.12-4.77-2.33v-54.8c0-3.47,2.81-6.27,6.27-6.27ZM358.76,359.51c-6.37,1.74-20.96,7.69-31.42,29.48-2.56,5.34-1.45,16.44,3.99,18.78,6.25,2.69,14.99,6.81,21.96,6.87,10.63.09,14.4-1.86,14.4-10.96v-37c0-5.82-3.33-8.51-8.93-7.16ZM486.22,182.39v172.65c0,5.87,7.34,8.39,11.1,3.88,15.46-18.53,29.46-42.98,39.12-62.61.43-.86.64-3.74.64-4.71v-109.22c0-3.47-2.81-6.27-6.27-6.27h-38.31c-3.47,0-6.27,2.81-6.27,6.27ZM401.53,226.5v174.7c0,8.64,7.74,15.19,16.26,13.74,7.7-1.3,21.3-5.34,22.24-5.63,10.88-3.47,12.8-12.54,12.36-18.27v-164.54c0-3.47-2.81-6.27-6.27-6.27h-38.31c-3.47,0-6.27,2.81-6.27,6.27Z"/>
  <path class="cls-25" d="M346.9,337.93c-19.8,12.15-36.59,28.83-50.57,47.28-5.27,7.15-10.3,15.18-14.84,22.82-8.91,15.07-17.89,30.11-26.56,45.32-4.55,7.98-13.27,31.76-17.59,39.85-2.66,4.97-1-5.79-3.54-.75,5.81-14.7,14.21-29.21,21.82-43.35,9.92-17.61,20.45-34.93,31.25-52.01,2.54-4.01,5.88-8.69,8.67-12.48,9.23-12.06,19.75-23.15,31.48-32.81,6.25-4.93,12.98-10.44,19.87-13.88h0Z"/>
  <path class="cls-25" d="M446.86,236.98c.1,43.97,1.5,105.66,0,148.98,0,0-.16,0-.16,0-1.34-42.98-.4-105.68.16-148.98h0Z"/>
  <path class="cls-25" d="M528.21,187.26c.09,33.19,1.3,79.76,0,112.46,0,0-.14,0-.14,0-1.16-32.43-.35-79.83.14-112.46h0Z"/>
  <path class="cls-25" d="M361.48,274.86c-.02,9.6.84,23.39-.07,32.7-.63-9.39-.19-23.3.07-32.7h0Z"/>
  <path class="cls-25" d="M365.92,374.61c.26,8.34.36,16.7-.14,25.04-.22,3.13-.45,6.29-1.23,9.35-.25,1.04-.7,2.13-1.52,2.87-3.46,2.79-8.25,2.26-12.3,1.53,0,0,.01-.07.01-.07,3.96.08,8.5.45,11.85-1.95,1.54-1.38,1.65-3.64,2.05-5.56,1.49-10.27,1.15-20.98,1.28-31.2h0Z"/>
  <path class="cls-25" d="M593.13,237.08c-7.52,22.28-15.16,44.54-24.11,66.32-9.3,21.64-20.9,42.25-34.05,61.77-21.5,31.3-49.12,60.33-84.59,75.39-7.94,3.95-16.82,5.39-25.52,6.69,8.69-1.46,17.44-3.04,25.34-7.09,35.26-15.26,62.64-44.23,83.95-75.55,13.21-19.41,24.89-39.94,34.26-61.47,8.99-21.72,16.85-43.91,24.72-66.06h0Z"/>
</svg>